# xmcd
#
# Track frame offsets: 
#        150
#        13479
#        35163
#        49228
#        71227
#        98216
#        134749
#        178221
#        202043
#
# Disc length: 2826 seconds
#
# Revision: 0
# Processed by: cddbd v1.5.2PL0 Copyright (c) Steve Scherf et al.
# Submitted via: ExactAudioCopy v0.99pb5
#
DISCID=960b0809
DTITLE=Krzak - Extrim
DYEAR=2007
DGENRE=Blues
TTITLE0=Krzak
TTITLE1=Kattowitz
TTITLE2=Evolving
TTITLE3=Lakis
TTITLE4=Wysoki lot
TTITLE5=W bajkowym swiecie Ksiecia Basu
TTITLE6=4.Numer
TTITLE7=Extrim
TTITLE8=Andrea
EXTD=
EXTT0=
EXTT1=
EXTT2=
EXTT3=
EXTT4=
EXTT5=
EXTT6=
EXTT7=
EXTT8=
PLAYORDER=
